<svg width="120" height="120" viewBox="0 0 120 120" fill="none" xmlns="http://www.w3.org/2000/svg">
<path d="M59.9992 66.5003C59.3492 66.5003 58.6992 66.3504 58.0992 66.0004L13.9493 40.4505C12.1493 39.4005 11.5492 37.1003 12.5992 35.3003C13.6492 33.5003 15.9493 32.9002 17.6993 33.9502L59.9492 58.4003L101.949 34.1004C103.749 33.0504 106.049 33.7005 107.049 35.4505C108.099 37.2505 107.449 39.5503 105.699 40.6003L61.8492 66.0004C61.2992 66.3004 60.6492 66.5003 59.9992 66.5003Z" fill="#12181F"/>
<path d="M60 111.799C57.95 111.799 56.25 110.099 56.25 108.049V62.6992C56.25 60.6492 57.95 58.9492 60 58.9492C62.05 58.9492 63.75 60.6492 63.75 62.6992V108.049C63.75 110.099 62.05 111.799 60 111.799Z" fill="#12181F"/>
<path d="M59.9994 113.752C55.5994 113.752 51.1994 112.801 47.7994 110.851L21.0994 96.0517C13.8494 92.0517 8.14941 82.4016 8.14941 74.1016V45.8014C8.14941 37.5014 13.8494 27.9017 21.0994 23.8517L47.7994 9.05156C54.5994 5.20156 65.2994 5.20156 72.1494 9.05156L98.8493 23.8517C106.099 27.8517 111.799 37.5014 111.799 45.8014V74.1016C111.799 74.6016 111.799 75.0015 111.699 75.5015C111.449 76.8015 110.499 77.9014 109.249 78.3014C107.999 78.7514 106.599 78.4517 105.549 77.6017C99.7993 72.6017 90.8994 72.4016 84.8494 77.2516C80.9994 80.3016 78.7494 84.9515 78.7494 89.9015C78.7494 92.8515 79.5494 95.7517 81.0994 98.2517C81.4994 98.9517 81.8994 99.5016 82.3494 100.052C83.0994 100.902 83.3995 102.052 83.1995 103.152C82.9995 104.252 82.2994 105.202 81.2994 105.752L72.1494 110.801C68.7494 112.801 64.3994 113.752 59.9994 113.752ZM59.9994 13.7516C56.8994 13.7516 53.7493 14.4016 51.4993 15.6516L24.7993 30.4517C19.9493 33.1017 15.7494 40.3014 15.7494 45.8014V74.1016C15.7494 79.6016 19.9993 86.8016 24.7993 89.4516L51.4993 104.251C56.0493 106.801 63.9993 106.801 68.5493 104.251L74.1493 101.151C72.2993 97.8015 71.2994 93.9015 71.2994 89.9015C71.2994 82.6015 74.5494 75.8517 80.1994 71.3517C86.9994 65.9017 96.7494 64.7515 104.349 68.0015V45.7016C104.349 40.2016 100.099 33.0016 95.2994 30.3516L68.5994 15.5515C66.2494 14.4015 63.0994 13.7516 59.9994 13.7516Z" fill="#12181F"/>
<path d="M95 113.75C86.7 113.75 78.9 109.35 74.7 102.2C72.45 98.6 71.25 94.35 71.25 90C71.25 82.7 74.5 75.9499 80.15 71.4499C84.35 68.0999 89.65 66.25 95 66.25C108.1 66.25 118.75 76.9 118.75 90C118.75 94.35 117.55 98.6001 115.3 102.25C114.1 104.35 112.45 106.25 110.55 107.85C106.4 111.65 100.85 113.75 95 113.75ZM95 73.75C91.3 73.75 87.8 74.9999 84.85 77.3499C81 80.3999 78.75 85.05 78.75 90C78.75 92.95 79.55 95.8499 81.1 98.3499C84.05 103.35 89.25 106.25 95 106.25C98.95 106.25 102.75 104.8 105.65 102.2C106.95 101.1 108.05 99.8 108.85 98.4C110.45 95.85 111.25 92.95 111.25 90C111.25 81.05 103.95 73.75 95 73.75Z" fill="#12181F"/>
<path d="M100.35 98.9513C99.3996 98.9513 98.4496 98.6015 97.6996 97.8515L87.1495 87.3015C85.6995 85.8516 85.6995 83.4516 87.1495 82.0016C88.5995 80.5516 90.9995 80.5516 92.4495 82.0016L103 92.5515C104.45 94.0015 104.45 96.4015 103 97.8515C102.25 98.6015 101.3 98.9513 100.35 98.9513Z" fill="#12181F"/>
<path d="M89.6506 99.1001C88.7006 99.1001 87.7506 98.7499 87.0006 97.9999C85.5506 96.5499 85.5506 94.1499 87.0006 92.6999L97.5507 82.15C99.0007 80.7 101.401 80.7 102.851 82.15C104.301 83.6 104.301 86 102.851 87.45L92.3006 97.9999C91.5506 98.7499 90.6006 99.1001 89.6506 99.1001Z" fill="#12181F"/>
</svg>
