<svg width="32" height="32" viewBox="0 0 32 32" fill="none" xmlns="http://www.w3.org/2000/svg">
<g clip-path="url(#clip0_875_26302)">
<path d="M16.0569 0.427734C11.8217 0.427734 11.2902 0.446092 9.62673 0.521132C7.96654 0.596495 6.83332 0.857042 5.84176 1.23933C4.81608 1.63418 3.94603 2.16236 3.07922 3.02194C2.21177 3.8812 1.67895 4.74368 1.27933 5.7601C0.892716 6.74335 0.629555 7.86703 0.55483 9.51211C0.480431 11.1611 0.460938 11.6883 0.460938 15.8867C0.460938 20.0851 0.479781 20.6103 0.555156 22.2593C0.631505 23.905 0.89434 25.0284 1.27966 26.0113C1.6783 27.0281 2.21112 27.8905 3.07825 28.7498C3.94473 29.6097 4.81478 30.1392 5.83981 30.534C6.83202 30.9163 7.96556 31.1768 9.62543 31.2522C11.2889 31.3272 11.8201 31.3456 16.055 31.3456C20.2906 31.3456 20.8205 31.3272 22.4839 31.2522C24.1441 31.1768 25.2786 30.9163 26.2708 30.534C27.2962 30.1392 28.1649 29.6097 29.0314 28.7498C29.8989 27.8905 30.4317 27.0281 30.8313 26.0116C31.2147 25.0284 31.4778 23.9047 31.5558 22.2596C31.6305 20.6107 31.65 20.0851 31.65 15.8867C31.65 11.6883 31.6305 11.1614 31.5558 9.51244C31.4778 7.8667 31.2147 6.74335 30.8313 5.76042C30.4317 4.74368 29.8989 3.8812 29.0314 3.02194C28.164 2.16203 27.2965 1.63385 26.2698 1.23933C25.2757 0.857042 24.1418 0.596495 22.4816 0.521132C20.8182 0.446092 20.2886 0.427734 16.0521 0.427734H16.0569ZM14.658 3.21356C15.0732 3.21292 15.5365 3.21356 16.0569 3.21356C20.2207 3.21356 20.7142 3.22838 22.3585 3.30245C23.879 3.37137 24.7042 3.62323 25.2539 3.83482C25.9817 4.11501 26.5005 4.44996 27.046 4.99102C27.5918 5.53208 27.9297 6.04738 28.213 6.7688C28.4265 7.31308 28.6809 8.13112 28.7501 9.63836C28.8248 11.268 28.841 11.7575 28.841 15.8831C28.841 20.0087 28.8248 20.4983 28.7501 22.1279C28.6805 23.6351 28.4265 24.4532 28.213 24.9975C27.9304 25.7189 27.5918 26.2326 27.046 26.7733C26.5002 27.3144 25.982 27.6493 25.2539 27.9295C24.7049 28.1421 23.879 28.3933 22.3585 28.4622C20.7146 28.5363 20.2207 28.5524 16.0569 28.5524C11.8928 28.5524 11.3993 28.5363 9.75538 28.4622C8.2349 28.3926 7.40968 28.1408 6.85964 27.9292C6.13189 27.649 5.61206 27.314 5.06625 26.773C4.52043 26.2319 4.18255 25.7179 3.89924 24.9962C3.68579 24.4519 3.4314 23.6339 3.3622 22.1266C3.28748 20.497 3.27253 20.0074 3.27253 15.8793C3.27253 11.7511 3.28748 11.2641 3.3622 9.6345C3.43173 8.12725 3.68579 7.30922 3.89924 6.76429C4.1819 6.04287 4.52043 5.52757 5.06625 4.98651C5.61206 4.44545 6.13189 4.1105 6.85964 3.82967C7.40935 3.61711 8.2349 3.3659 9.75538 3.29666C11.194 3.23224 11.7515 3.21292 14.658 3.2097V3.21356ZM24.3813 5.78039C23.3481 5.78039 22.5099 6.61034 22.5099 7.63482C22.5099 8.65897 23.3481 9.48989 24.3813 9.48989C25.4144 9.48989 26.2526 8.65897 26.2526 7.63482C26.2526 6.61066 25.4144 5.77975 24.3813 5.77975V5.78039ZM16.0569 7.94786C11.6342 7.94786 8.04841 11.5025 8.04841 15.8867C8.04841 20.2709 11.6342 23.8239 16.0569 23.8239C20.4797 23.8239 24.0642 20.2709 24.0642 15.8867C24.0642 11.5025 20.4793 7.94786 16.0566 7.94786H16.0569ZM16.0569 10.7337C18.9277 10.7337 21.2552 13.0406 21.2552 15.8867C21.2552 18.7324 18.9277 21.0396 16.0569 21.0396C13.1859 21.0396 10.8587 18.7324 10.8587 15.8867C10.8587 13.0406 13.1859 10.7337 16.0569 10.7337Z" fill="white"/>
</g>
<defs>
<clipPath id="clip0_875_26302">
<rect width="32" height="32" fill="white"/>
</clipPath>
</defs>
</svg>
