<svg width="40" height="40" viewBox="0 0 40 40" fill="none" xmlns="http://www.w3.org/2000/svg">
<path d="M15.2526 12.4844C14.3193 12.4844 13.5859 13.2344 13.5859 14.151C13.5859 15.0677 14.3359 15.8177 15.2526 15.8177C16.1693 15.8177 16.9193 15.0677 16.9193 14.151C16.9193 13.2344 16.1693 12.4844 15.2526 12.4844Z" fill="#107E7E"/>
<path d="M35.7693 8.3987C34.3693 5.1487 31.2859 3.33203 26.9859 3.33203H13.0193C7.66927 3.33203 3.33594 7.66536 3.33594 13.0154V26.982C3.33594 31.282 5.1526 34.3654 8.4026 35.7654C8.71927 35.8987 9.08594 35.8154 9.31927 35.582L35.5859 9.31536C35.8359 9.06536 35.9193 8.6987 35.7693 8.3987ZM17.5526 20.3987C16.9026 21.032 16.0526 21.332 15.2026 21.332C14.3526 21.332 13.5026 21.0154 12.8526 20.3987C11.1526 18.7987 9.28594 16.2487 10.0026 13.2154C10.6359 10.4654 13.0693 9.23203 15.2026 9.23203C17.3359 9.23203 19.7693 10.4654 20.4026 13.232C21.1026 16.2487 19.2359 18.7987 17.5526 20.3987Z" fill="#107E7E"/>
<path d="M32.4482 34.2159C32.8149 34.5826 32.7649 35.1826 32.3149 35.4326C30.8482 36.2492 29.0649 36.6659 26.9815 36.6659H13.0149C12.5315 36.6659 12.3315 36.0992 12.6649 35.7659L22.7315 25.6992C23.0649 25.3659 23.5815 25.3659 23.9149 25.6992L32.4482 34.2159Z" fill="#107E7E"/>
<path d="M36.663 13.0149V26.9815C36.663 29.0649 36.2464 30.8649 35.4297 32.3149C35.1797 32.7649 34.5797 32.7982 34.213 32.4482L25.6797 23.9149C25.3464 23.5815 25.3464 23.0649 25.6797 22.7315L35.7464 12.6649C36.0964 12.3315 36.663 12.5315 36.663 13.0149Z" fill="#107E7E"/>
</svg>
