<svg width="40" height="40" viewBox="0 0 40 40" fill="none" xmlns="http://www.w3.org/2000/svg">
<path d="M15.2526 12.4824C14.3193 12.4824 13.5859 13.2324 13.5859 14.1491C13.5859 15.0658 14.3359 15.8158 15.2526 15.8158C16.1693 15.8158 16.9193 15.0658 16.9193 14.1491C16.9193 13.2324 16.1693 12.4824 15.2526 12.4824Z" fill="#4543A5"/>
<path d="M35.7693 8.40065C34.3693 5.15065 31.2859 3.33398 26.9859 3.33398H13.0193C7.66927 3.33398 3.33594 7.66732 3.33594 13.0173V26.984C3.33594 31.284 5.1526 34.3673 8.4026 35.7673C8.71927 35.9007 9.08594 35.8173 9.31927 35.584L35.5859 9.31732C35.8359 9.06732 35.9193 8.70065 35.7693 8.40065ZM17.5526 20.4007C16.9026 21.034 16.0526 21.334 15.2026 21.334C14.3526 21.334 13.5026 21.0173 12.8526 20.4007C11.1526 18.8007 9.28594 16.2507 10.0026 13.2173C10.6359 10.4673 13.0693 9.23398 15.2026 9.23398C17.3359 9.23398 19.7693 10.4673 20.4026 13.234C21.1026 16.2507 19.2359 18.8007 17.5526 20.4007Z" fill="#4543A5"/>
<path d="M32.4482 34.2159C32.8149 34.5826 32.7649 35.1826 32.3149 35.4326C30.8482 36.2492 29.0649 36.6659 26.9815 36.6659H13.0149C12.5315 36.6659 12.3315 36.0992 12.6649 35.7659L22.7315 25.6992C23.0649 25.3659 23.5815 25.3659 23.9149 25.6992L32.4482 34.2159Z" fill="#4543A5"/>
<path d="M36.663 13.0168V26.9835C36.663 29.0668 36.2464 30.8668 35.4297 32.3168C35.1797 32.7668 34.5797 32.8001 34.213 32.4502L25.6797 23.9168C25.3464 23.5835 25.3464 23.0668 25.6797 22.7335L35.7464 12.6668C36.0964 12.3335 36.663 12.5335 36.663 13.0168Z" fill="#4543A5"/>
</svg>
