<svg width="40" height="40" viewBox="0 0 40 40" fill="none" xmlns="http://www.w3.org/2000/svg">
<path d="M15.2487 12.4824C14.3154 12.4824 13.582 13.2324 13.582 14.1491C13.582 15.0658 14.332 15.8158 15.2487 15.8158C16.1654 15.8158 16.9154 15.0658 16.9154 14.1491C16.9154 13.2324 16.1654 12.4824 15.2487 12.4824Z" fill="#12181F"/>
<path d="M35.7654 8.40065C34.3654 5.15065 31.282 3.33398 26.982 3.33398H13.0154C7.66536 3.33398 3.33203 7.66732 3.33203 13.0173V26.984C3.33203 31.284 5.1487 34.3673 8.3987 35.7673C8.71536 35.9007 9.08203 35.8173 9.31537 35.584L35.582 9.31732C35.832 9.06732 35.9154 8.70065 35.7654 8.40065ZM17.5487 20.4007C16.8987 21.034 16.0487 21.334 15.1987 21.334C14.3487 21.334 13.4987 21.0173 12.8487 20.4007C11.1487 18.8007 9.28203 16.2507 9.9987 13.2173C10.632 10.4673 13.0654 9.23398 15.1987 9.23398C17.332 9.23398 19.7654 10.4673 20.3987 13.234C21.0987 16.2507 19.232 18.8007 17.5487 20.4007Z" fill="#12181F"/>
<path d="M32.4482 34.2159C32.8149 34.5826 32.7649 35.1826 32.3149 35.4326C30.8482 36.2492 29.0649 36.6659 26.9815 36.6659H13.0149C12.5315 36.6659 12.3315 36.0992 12.6649 35.7659L22.7315 25.6992C23.0649 25.3659 23.5815 25.3659 23.9149 25.6992L32.4482 34.2159Z" fill="#12181F"/>
<path d="M36.6669 13.0168V26.9835C36.6669 29.0668 36.2503 30.8668 35.4336 32.3168C35.1836 32.7668 34.5836 32.8001 34.2169 32.4502L25.6836 23.9168C25.3503 23.5835 25.3503 23.0668 25.6836 22.7335L35.7503 12.6668C36.1003 12.3335 36.6669 12.5335 36.6669 13.0168Z" fill="#12181F"/>
</svg>
