<svg width="36" height="32" viewBox="0 0 36 32" fill="none" xmlns="http://www.w3.org/2000/svg">
<g clip-path="url(#clip0_875_26299)">
<path d="M11.3634 31.8669C24.8586 31.8669 32.2386 19.6576 32.2386 9.07021C32.2386 8.72343 32.2322 8.37821 32.2179 8.03456C33.6505 6.90361 34.8956 5.49228 35.8777 3.88566C34.5631 4.52377 33.1484 4.95334 31.6644 5.14704C33.1791 4.15511 34.342 2.58601 34.8907 0.715468C33.4731 1.63319 31.9033 2.3002 30.2318 2.66031C28.893 1.10297 26.9869 0.128906 24.8763 0.128906C20.8246 0.128906 17.539 3.71707 17.539 8.13998C17.539 8.76871 17.6034 9.38027 17.7293 9.96689C11.6315 9.63182 6.22441 6.4436 2.60569 1.5957C1.9756 2.77975 1.61227 4.15515 1.61227 5.62273C1.61227 8.40247 2.90755 10.8564 4.87723 12.292C3.67351 12.2514 2.54275 11.8906 1.55443 11.2899C1.55335 11.3236 1.55335 11.3563 1.55335 11.3923C1.55335 15.2725 4.08235 18.5122 7.43947 19.2463C6.82296 19.4299 6.17431 19.5283 5.50483 19.5283C5.0328 19.5283 4.57291 19.4776 4.12591 19.3838C5.05996 22.5673 7.76851 24.8839 10.9797 24.9487C8.46859 27.0981 5.30527 28.3783 1.86727 28.3783C1.27579 28.3783 0.691471 28.3415 0.117188 28.2673C3.36427 30.5402 7.21987 31.8664 11.3638 31.8664" fill="white"/>
</g>
<defs>
<clipPath id="clip0_875_26299">
<rect width="36" height="32" fill="white"/>
</clipPath>
</defs>
</svg>
