<svg width="65" height="64" viewBox="0 0 65 64" fill="none" xmlns="http://www.w3.org/2000/svg">
<path d="M41.1972 59.3328H23.8105C10.7172 59.3328 5.11719 53.7327 5.11719 40.6394V40.2928C5.11719 28.4528 9.78385 22.7461 20.2372 21.7594C21.3039 21.6794 22.3172 22.4794 22.4239 23.5728C22.5305 24.6661 21.7305 25.6528 20.6105 25.7594C12.2372 26.5328 9.11719 30.4794 9.11719 40.3194V40.6661C9.11719 51.5194 12.9572 55.3594 23.8105 55.3594H41.1972C52.0505 55.3594 55.8905 51.5194 55.8905 40.6661V40.3194C55.8905 30.4261 52.7172 26.4794 44.1838 25.7594C43.0905 25.6528 42.2639 24.6928 42.3705 23.5994C42.4772 22.5061 43.4105 21.6794 44.5305 21.7861C55.1439 22.6928 59.8905 28.4261 59.8905 40.3461V40.6928C59.8905 53.7328 54.2905 59.3328 41.1972 59.3328Z" fill="#959595"/>
<path d="M32.5 41.6787C31.4067 41.6787 30.5 40.772 30.5 39.6787V5.33203C30.5 4.2387 31.4067 3.33203 32.5 3.33203C33.5933 3.33203 34.5 4.2387 34.5 5.33203V39.6787C34.5 40.7987 33.5933 41.6787 32.5 41.6787Z" fill="#959595"/>
<path d="M32.497 44.6649C31.9903 44.6649 31.4836 44.4783 31.0836 44.0783L22.1503 35.1449C21.377 34.3716 21.377 33.0916 22.1503 32.3183C22.9236 31.5449 24.2036 31.5449 24.977 32.3183L32.497 39.8383L40.017 32.3183C40.7903 31.5449 42.0703 31.5449 42.8436 32.3183C43.617 33.0916 43.617 34.3716 42.8436 35.1449L33.9103 44.0783C33.5103 44.4783 33.0036 44.6649 32.497 44.6649Z" fill="#959595"/>
</svg>
