<svg width="36" height="32" viewBox="0 0 36 32" fill="none" xmlns="http://www.w3.org/2000/svg">
<g clip-path="url(#clip0_875_26304)">
<path d="M35.2585 5.00706C34.8433 3.04941 33.6275 1.50588 32.0855 0.978823C29.2684 0 17.9999 0 17.9999 0C17.9999 0 6.73144 0 3.91432 0.941176C2.40197 1.46824 1.1565 3.04941 0.741348 5.00706C0 8.58353 0 16 0 16C0 16 0 23.4541 0.741348 26.9929C1.1565 28.9506 2.37231 30.4941 3.91432 31.0212C6.76109 32 17.9999 32 17.9999 32C17.9999 32 29.2684 32 32.0855 31.0588C33.6275 30.5318 34.8433 28.9882 35.2585 27.0306C35.9998 23.4541 35.9998 16.0376 35.9998 16.0376C35.9998 16.0376 36.0295 8.58353 35.2585 5.00706Z" fill="white"/>
<path opacity="0.7" d="M23.7847 16.0002L14.4141 9.14844V22.852L23.7847 16.0002Z" fill="#222222"/>
</g>
<defs>
<clipPath id="clip0_875_26304">
<rect width="36" height="32" fill="white"/>
</clipPath>
</defs>
</svg>
